<svg width="25px" height="25px" viewBox="0 0 25 25" version="1.1" xmlns="http://www.w3.org/2000/svg" xmlns:xlink="http://www.w3.org/1999/xlink">
    <title>WeChat</title>
    <g id="Page-1" stroke="none" stroke-width="1" fill="none" fill-rule="evenodd">
        <g id="Icon-Set-Filled" transform="translate(-413.000000, -414.000000)" fill="#07C160">
            <path d="M425.5,414 C418.596,414 413,418.716 413,424.667 C413,427.831 414.4,430.653 416.669,432.752 C416.493,433.87 415.832,436.036 414.333,438.1 C416.596,437.322 418.534,435.923 419.9,434.588 C421.689,435.249 423.573,435.633 425.5,435.633 C432.404,435.633 438,430.917 438,424.966 C438,419.016 432.404,414 425.5,414 Z M423.033,422.167 C422.255,422.167 421.6,422.822 421.6,423.6 C421.6,424.378 422.255,425.033 423.033,425.033 C423.811,425.033 424.467,424.378 424.467,423.6 C424.467,422.822 423.811,422.167 423.033,422.167 Z M428.6,422.167 C427.822,422.167 427.167,422.822 427.167,423.6 C427.167,424.378 427.822,425.033 428.6,425.033 C429.378,425.033 430.033,424.378 430.033,423.6 C430.033,422.822 429.378,422.167 428.6,422.167 Z" id="WeChat"></path>
        </g>
    </g>
</svg>